<mxfile host="app.diagrams.net" agent="Mozilla/5.0 (Windows NT 10.0; Win64; x64) AppleWebKit/537.36 (KHTML, like Gecko) Chrome/135.0.0.0 Safari/537.36" version="26.2.15">
  <diagram id="C5RBs43oDa-KdzZeNtuy" name="Page-1">
    <mxGraphModel dx="1484" dy="755" grid="1" gridSize="10" guides="1" tooltips="1" connect="1" arrows="1" fold="1" page="1" pageScale="1" pageWidth="827" pageHeight="1169" math="0" shadow="0">
      <root>
        <mxCell id="WIyWlLk6GJQsqaUBKTNV-0" />
        <mxCell id="WIyWlLk6GJQsqaUBKTNV-1" parent="WIyWlLk6GJQsqaUBKTNV-0" />
        <mxCell id="qIzmEXs6rjgO7k1j2Ef--6" value="" style="edgeStyle=orthogonalEdgeStyle;rounded=0;orthogonalLoop=1;jettySize=auto;html=1;" edge="1" parent="WIyWlLk6GJQsqaUBKTNV-1" source="qIzmEXs6rjgO7k1j2Ef--0" target="qIzmEXs6rjgO7k1j2Ef--2">
          <mxGeometry relative="1" as="geometry" />
        </mxCell>
        <mxCell id="qIzmEXs6rjgO7k1j2Ef--7" value="" style="edgeStyle=orthogonalEdgeStyle;rounded=0;orthogonalLoop=1;jettySize=auto;html=1;" edge="1" parent="WIyWlLk6GJQsqaUBKTNV-1" source="qIzmEXs6rjgO7k1j2Ef--0" target="qIzmEXs6rjgO7k1j2Ef--2">
          <mxGeometry relative="1" as="geometry" />
        </mxCell>
        <mxCell id="qIzmEXs6rjgO7k1j2Ef--14" value="" style="edgeStyle=orthogonalEdgeStyle;rounded=0;orthogonalLoop=1;jettySize=auto;html=1;" edge="1" parent="WIyWlLk6GJQsqaUBKTNV-1" source="qIzmEXs6rjgO7k1j2Ef--0" target="qIzmEXs6rjgO7k1j2Ef--13">
          <mxGeometry relative="1" as="geometry" />
        </mxCell>
        <mxCell id="qIzmEXs6rjgO7k1j2Ef--15" value="" style="edgeStyle=orthogonalEdgeStyle;rounded=0;orthogonalLoop=1;jettySize=auto;html=1;" edge="1" parent="WIyWlLk6GJQsqaUBKTNV-1" source="qIzmEXs6rjgO7k1j2Ef--0" target="qIzmEXs6rjgO7k1j2Ef--13">
          <mxGeometry relative="1" as="geometry" />
        </mxCell>
        <mxCell id="qIzmEXs6rjgO7k1j2Ef--16" value="" style="edgeStyle=orthogonalEdgeStyle;rounded=0;orthogonalLoop=1;jettySize=auto;html=1;" edge="1" parent="WIyWlLk6GJQsqaUBKTNV-1" source="qIzmEXs6rjgO7k1j2Ef--0" target="qIzmEXs6rjgO7k1j2Ef--13">
          <mxGeometry relative="1" as="geometry" />
        </mxCell>
        <mxCell id="qIzmEXs6rjgO7k1j2Ef--0" value="&lt;span style=&quot;&quot;&gt;Trang chủ&lt;/span&gt;" style="rounded=0;whiteSpace=wrap;html=1;fillColor=#dae8fc;strokeColor=#6c8ebf;labelBackgroundColor=none;" vertex="1" parent="WIyWlLk6GJQsqaUBKTNV-1">
          <mxGeometry x="307" y="40" width="80" height="40" as="geometry" />
        </mxCell>
        <mxCell id="qIzmEXs6rjgO7k1j2Ef--5" value="" style="edgeStyle=orthogonalEdgeStyle;rounded=0;orthogonalLoop=1;jettySize=auto;html=1;" edge="1" parent="WIyWlLk6GJQsqaUBKTNV-1" source="qIzmEXs6rjgO7k1j2Ef--8" target="qIzmEXs6rjgO7k1j2Ef--4">
          <mxGeometry relative="1" as="geometry" />
        </mxCell>
        <mxCell id="qIzmEXs6rjgO7k1j2Ef--2" value="Danh sách công việc" style="rounded=0;whiteSpace=wrap;html=1;fillColor=#dae8fc;strokeColor=#6c8ebf;" vertex="1" parent="WIyWlLk6GJQsqaUBKTNV-1">
          <mxGeometry x="244" y="120" width="80" height="40" as="geometry" />
        </mxCell>
        <mxCell id="qIzmEXs6rjgO7k1j2Ef--4" value="Chi tiết công việc" style="whiteSpace=wrap;html=1;rounded=0;fillColor=#dae8fc;strokeColor=#6c8ebf;" vertex="1" parent="WIyWlLk6GJQsqaUBKTNV-1">
          <mxGeometry x="244" y="240" width="80" height="40" as="geometry" />
        </mxCell>
        <mxCell id="qIzmEXs6rjgO7k1j2Ef--11" value="" style="edgeStyle=orthogonalEdgeStyle;rounded=0;orthogonalLoop=1;jettySize=auto;html=1;" edge="1" parent="WIyWlLk6GJQsqaUBKTNV-1" source="qIzmEXs6rjgO7k1j2Ef--8" target="qIzmEXs6rjgO7k1j2Ef--9">
          <mxGeometry relative="1" as="geometry" />
        </mxCell>
        <mxCell id="qIzmEXs6rjgO7k1j2Ef--9" value="Chi tiết công ty" style="rounded=0;whiteSpace=wrap;html=1;fillColor=#dae8fc;strokeColor=#6c8ebf;" vertex="1" parent="WIyWlLk6GJQsqaUBKTNV-1">
          <mxGeometry x="120" y="240" width="80" height="40" as="geometry" />
        </mxCell>
        <mxCell id="qIzmEXs6rjgO7k1j2Ef--26" value="" style="edgeStyle=orthogonalEdgeStyle;rounded=0;orthogonalLoop=1;jettySize=auto;html=1;" edge="1" parent="WIyWlLk6GJQsqaUBKTNV-1" source="qIzmEXs6rjgO7k1j2Ef--13" target="qIzmEXs6rjgO7k1j2Ef--18">
          <mxGeometry relative="1" as="geometry" />
        </mxCell>
        <mxCell id="qIzmEXs6rjgO7k1j2Ef--13" value="Danh sách tin tức" style="rounded=0;whiteSpace=wrap;html=1;fillColor=#dae8fc;strokeColor=#6c8ebf;" vertex="1" parent="WIyWlLk6GJQsqaUBKTNV-1">
          <mxGeometry y="120" width="80" height="40" as="geometry" />
        </mxCell>
        <mxCell id="qIzmEXs6rjgO7k1j2Ef--17" value="" style="endArrow=classic;html=1;rounded=0;" edge="1" parent="WIyWlLk6GJQsqaUBKTNV-1" source="qIzmEXs6rjgO7k1j2Ef--0" target="qIzmEXs6rjgO7k1j2Ef--8">
          <mxGeometry width="50" height="50" relative="1" as="geometry">
            <mxPoint x="170" y="90" as="sourcePoint" />
            <mxPoint x="-106" y="-10" as="targetPoint" />
            <Array as="points" />
          </mxGeometry>
        </mxCell>
        <mxCell id="qIzmEXs6rjgO7k1j2Ef--18" value="Chi tiết tin tức" style="rounded=0;whiteSpace=wrap;html=1;fillColor=#dae8fc;strokeColor=#6c8ebf;" vertex="1" parent="WIyWlLk6GJQsqaUBKTNV-1">
          <mxGeometry y="240" width="80" height="40" as="geometry" />
        </mxCell>
        <mxCell id="qIzmEXs6rjgO7k1j2Ef--31" value="" style="edgeStyle=orthogonalEdgeStyle;rounded=0;orthogonalLoop=1;jettySize=auto;html=1;" edge="1" parent="WIyWlLk6GJQsqaUBKTNV-1" source="qIzmEXs6rjgO7k1j2Ef--20" target="qIzmEXs6rjgO7k1j2Ef--29">
          <mxGeometry relative="1" as="geometry" />
        </mxCell>
        <mxCell id="qIzmEXs6rjgO7k1j2Ef--20" value="Tìm công việc phù hợp" style="rounded=0;whiteSpace=wrap;html=1;fillColor=#dae8fc;strokeColor=#6c8ebf;" vertex="1" parent="WIyWlLk6GJQsqaUBKTNV-1">
          <mxGeometry x="360" y="120" width="80" height="40" as="geometry" />
        </mxCell>
        <mxCell id="qIzmEXs6rjgO7k1j2Ef--28" value="" style="endArrow=classic;html=1;rounded=0;exitX=0.5;exitY=1;exitDx=0;exitDy=0;entryX=0.5;entryY=0;entryDx=0;entryDy=0;" edge="1" parent="WIyWlLk6GJQsqaUBKTNV-1" source="qIzmEXs6rjgO7k1j2Ef--0" target="qIzmEXs6rjgO7k1j2Ef--20">
          <mxGeometry width="50" height="50" relative="1" as="geometry">
            <mxPoint x="-50" y="300" as="sourcePoint" />
            <mxPoint y="250" as="targetPoint" />
          </mxGeometry>
        </mxCell>
        <mxCell id="qIzmEXs6rjgO7k1j2Ef--78" value="" style="edgeStyle=orthogonalEdgeStyle;rounded=0;orthogonalLoop=1;jettySize=auto;html=1;" edge="1" parent="WIyWlLk6GJQsqaUBKTNV-1" source="qIzmEXs6rjgO7k1j2Ef--29" target="qIzmEXs6rjgO7k1j2Ef--76">
          <mxGeometry relative="1" as="geometry" />
        </mxCell>
        <mxCell id="qIzmEXs6rjgO7k1j2Ef--29" value="Đăng nhập chưa?" style="rhombus;whiteSpace=wrap;html=1;" vertex="1" parent="WIyWlLk6GJQsqaUBKTNV-1">
          <mxGeometry x="360" y="190" width="85" height="80" as="geometry" />
        </mxCell>
        <mxCell id="qIzmEXs6rjgO7k1j2Ef--41" value="Đã đăng nhập" style="text;html=1;align=center;verticalAlign=middle;whiteSpace=wrap;rounded=0;" vertex="1" parent="WIyWlLk6GJQsqaUBKTNV-1">
          <mxGeometry x="340" y="270" width="60" height="30" as="geometry" />
        </mxCell>
        <mxCell id="qIzmEXs6rjgO7k1j2Ef--42" value="Đăng nhập" style="rounded=0;whiteSpace=wrap;html=1;fillColor=#dae8fc;strokeColor=#6c8ebf;" vertex="1" parent="WIyWlLk6GJQsqaUBKTNV-1">
          <mxGeometry x="520" y="360" width="80" height="40" as="geometry" />
        </mxCell>
        <object label="" id="qIzmEXs6rjgO7k1j2Ef--43">
          <mxCell style="endArrow=classic;html=1;rounded=0;exitX=0.7;exitY=0.874;exitDx=0;exitDy=0;exitPerimeter=0;" edge="1" parent="WIyWlLk6GJQsqaUBKTNV-1" source="qIzmEXs6rjgO7k1j2Ef--29" target="qIzmEXs6rjgO7k1j2Ef--42">
            <mxGeometry width="50" height="50" relative="1" as="geometry">
              <mxPoint x="135" y="290" as="sourcePoint" />
              <mxPoint x="-190" y="200" as="targetPoint" />
              <Array as="points" />
            </mxGeometry>
          </mxCell>
        </object>
        <mxCell id="qIzmEXs6rjgO7k1j2Ef--44" value="Chưa đăng nhập" style="text;html=1;align=center;verticalAlign=middle;whiteSpace=wrap;rounded=0;" vertex="1" parent="WIyWlLk6GJQsqaUBKTNV-1">
          <mxGeometry x="450" y="260" width="60" height="30" as="geometry" />
        </mxCell>
        <object label="" id="qIzmEXs6rjgO7k1j2Ef--45">
          <mxCell style="endArrow=classic;html=1;rounded=0;exitX=1;exitY=1;exitDx=0;exitDy=0;entryX=0.5;entryY=0;entryDx=0;entryDy=0;verticalAlign=middle;flowAnimation=0;shadow=0;" edge="1" parent="WIyWlLk6GJQsqaUBKTNV-1" source="qIzmEXs6rjgO7k1j2Ef--0" target="qIzmEXs6rjgO7k1j2Ef--42">
            <mxGeometry width="50" height="50" relative="1" as="geometry">
              <mxPoint x="180" y="70" as="sourcePoint" />
              <mxPoint x="476.3399999999999" y="351.79999999999995" as="targetPoint" />
              <Array as="points">
                <mxPoint x="490" y="140" />
              </Array>
            </mxGeometry>
          </mxCell>
        </object>
        <mxCell id="qIzmEXs6rjgO7k1j2Ef--47" value="Ứng tuyển công việc" style="rounded=0;whiteSpace=wrap;html=1;fillColor=#d5e8d4;strokeColor=#82b366;" vertex="1" parent="WIyWlLk6GJQsqaUBKTNV-1">
          <mxGeometry x="244" y="490" width="80" height="40" as="geometry" />
        </mxCell>
        <mxCell id="qIzmEXs6rjgO7k1j2Ef--50" value="Đăng nhập chưa?" style="rhombus;whiteSpace=wrap;html=1;" vertex="1" parent="WIyWlLk6GJQsqaUBKTNV-1">
          <mxGeometry x="244" y="345" width="80" height="80" as="geometry" />
        </mxCell>
        <object label="" id="qIzmEXs6rjgO7k1j2Ef--51">
          <mxCell style="endArrow=classic;html=1;rounded=0;exitX=0.5;exitY=1;exitDx=0;exitDy=0;" edge="1" parent="WIyWlLk6GJQsqaUBKTNV-1" source="qIzmEXs6rjgO7k1j2Ef--4" target="qIzmEXs6rjgO7k1j2Ef--50">
            <mxGeometry width="50" height="50" relative="1" as="geometry">
              <mxPoint x="175" y="290" as="sourcePoint" />
              <mxPoint x="-150" y="200" as="targetPoint" />
              <Array as="points" />
            </mxGeometry>
          </mxCell>
        </object>
        <object label="" id="qIzmEXs6rjgO7k1j2Ef--52">
          <mxCell style="endArrow=classic;html=1;rounded=0;exitX=0.5;exitY=1;exitDx=0;exitDy=0;entryX=0.5;entryY=0;entryDx=0;entryDy=0;" edge="1" parent="WIyWlLk6GJQsqaUBKTNV-1" source="qIzmEXs6rjgO7k1j2Ef--50" target="qIzmEXs6rjgO7k1j2Ef--47">
            <mxGeometry width="50" height="50" relative="1" as="geometry">
              <mxPoint x="175" y="290" as="sourcePoint" />
              <mxPoint x="-150" y="200" as="targetPoint" />
              <Array as="points" />
            </mxGeometry>
          </mxCell>
        </object>
        <object label="" id="qIzmEXs6rjgO7k1j2Ef--53">
          <mxCell style="endArrow=classic;html=1;rounded=0;exitX=0.915;exitY=0.473;exitDx=0;exitDy=0;exitPerimeter=0;entryX=0;entryY=0.5;entryDx=0;entryDy=0;" edge="1" parent="WIyWlLk6GJQsqaUBKTNV-1" source="qIzmEXs6rjgO7k1j2Ef--50" target="qIzmEXs6rjgO7k1j2Ef--42">
            <mxGeometry width="50" height="50" relative="1" as="geometry">
              <mxPoint x="175" y="290" as="sourcePoint" />
              <mxPoint x="-150" y="200" as="targetPoint" />
              <Array as="points" />
            </mxGeometry>
          </mxCell>
        </object>
        <mxCell id="qIzmEXs6rjgO7k1j2Ef--54" value="Đã đăng nhập" style="text;html=1;align=center;verticalAlign=middle;whiteSpace=wrap;rounded=0;" vertex="1" parent="WIyWlLk6GJQsqaUBKTNV-1">
          <mxGeometry x="230" y="440" width="60" height="30" as="geometry" />
        </mxCell>
        <object label="" id="qIzmEXs6rjgO7k1j2Ef--59">
          <mxCell style="endArrow=classic;html=1;rounded=0;exitX=0.5;exitY=1;exitDx=0;exitDy=0;entryX=0.5;entryY=0;entryDx=0;entryDy=0;" edge="1" parent="WIyWlLk6GJQsqaUBKTNV-1" source="qIzmEXs6rjgO7k1j2Ef--42" target="qIzmEXs6rjgO7k1j2Ef--60">
            <mxGeometry width="50" height="50" relative="1" as="geometry">
              <mxPoint x="427.38" y="378.1" as="sourcePoint" />
              <mxPoint x="647.6923076923081" y="418.26923076923094" as="targetPoint" />
              <Array as="points">
                <mxPoint x="650" y="440" />
              </Array>
            </mxGeometry>
          </mxCell>
        </object>
        <mxCell id="qIzmEXs6rjgO7k1j2Ef--60" value="Đăng ký" style="rounded=0;whiteSpace=wrap;html=1;fillColor=#dae8fc;strokeColor=#6c8ebf;" vertex="1" parent="WIyWlLk6GJQsqaUBKTNV-1">
          <mxGeometry x="620" y="480" width="80" height="40" as="geometry" />
        </mxCell>
        <object label="" id="qIzmEXs6rjgO7k1j2Ef--62">
          <mxCell style="endArrow=classic;html=1;rounded=0;exitX=0;exitY=0;exitDx=0;exitDy=0;entryX=0.5;entryY=1;entryDx=0;entryDy=0;" edge="1" parent="WIyWlLk6GJQsqaUBKTNV-1" source="qIzmEXs6rjgO7k1j2Ef--60" target="qIzmEXs6rjgO7k1j2Ef--42">
            <mxGeometry width="50" height="50" relative="1" as="geometry">
              <mxPoint x="175" y="290" as="sourcePoint" />
              <mxPoint x="-150" y="200" as="targetPoint" />
              <Array as="points" />
            </mxGeometry>
          </mxCell>
        </object>
        <mxCell id="qIzmEXs6rjgO7k1j2Ef--65" value="Thông tin cá nhân" style="rounded=0;whiteSpace=wrap;html=1;fillColor=#d5e8d4;strokeColor=#82b366;" vertex="1" parent="WIyWlLk6GJQsqaUBKTNV-1">
          <mxGeometry x="362.5" y="450" width="80" height="40" as="geometry" />
        </mxCell>
        <object label="" id="qIzmEXs6rjgO7k1j2Ef--66">
          <mxCell style="endArrow=classic;html=1;rounded=0;" edge="1" parent="WIyWlLk6GJQsqaUBKTNV-1" source="qIzmEXs6rjgO7k1j2Ef--42" target="qIzmEXs6rjgO7k1j2Ef--65">
            <mxGeometry width="50" height="50" relative="1" as="geometry">
              <mxPoint x="485" y="350" as="sourcePoint" />
              <mxPoint x="160" y="260" as="targetPoint" />
              <Array as="points" />
            </mxGeometry>
          </mxCell>
        </object>
        <mxCell id="qIzmEXs6rjgO7k1j2Ef--67" value="Danh sách đơn đã ứng tuyển" style="rounded=0;whiteSpace=wrap;html=1;fillColor=#d5e8d4;strokeColor=#82b366;" vertex="1" parent="WIyWlLk6GJQsqaUBKTNV-1">
          <mxGeometry x="387" y="530" width="79" height="40" as="geometry" />
        </mxCell>
        <object label="" id="qIzmEXs6rjgO7k1j2Ef--68">
          <mxCell style="endArrow=classic;html=1;rounded=0;exitX=0.25;exitY=1;exitDx=0;exitDy=0;entryX=0.5;entryY=0;entryDx=0;entryDy=0;" edge="1" parent="WIyWlLk6GJQsqaUBKTNV-1" source="qIzmEXs6rjgO7k1j2Ef--42" target="qIzmEXs6rjgO7k1j2Ef--67">
            <mxGeometry width="50" height="50" relative="1" as="geometry">
              <mxPoint x="805" y="360" as="sourcePoint" />
              <mxPoint x="480" y="270" as="targetPoint" />
              <Array as="points" />
            </mxGeometry>
          </mxCell>
        </object>
        <mxCell id="qIzmEXs6rjgO7k1j2Ef--69" value="Đăng ký nhận công việc mới qua email" style="rounded=0;whiteSpace=wrap;html=1;fillColor=#d5e8d4;strokeColor=#82b366;" vertex="1" parent="WIyWlLk6GJQsqaUBKTNV-1">
          <mxGeometry x="500" y="480" width="79" height="40" as="geometry" />
        </mxCell>
        <object label="" id="qIzmEXs6rjgO7k1j2Ef--70">
          <mxCell style="endArrow=classic;html=1;rounded=0;exitX=0.5;exitY=1;exitDx=0;exitDy=0;" edge="1" parent="WIyWlLk6GJQsqaUBKTNV-1" source="qIzmEXs6rjgO7k1j2Ef--42" target="qIzmEXs6rjgO7k1j2Ef--69">
            <mxGeometry width="50" height="50" relative="1" as="geometry">
              <mxPoint x="550" y="430" as="sourcePoint" />
              <mxPoint x="510" y="210" as="targetPoint" />
              <Array as="points" />
            </mxGeometry>
          </mxCell>
        </object>
        <mxCell id="qIzmEXs6rjgO7k1j2Ef--8" value="Danh sách công ty" style="rounded=0;whiteSpace=wrap;html=1;fillColor=#dae8fc;strokeColor=#6c8ebf;" vertex="1" parent="WIyWlLk6GJQsqaUBKTNV-1">
          <mxGeometry x="120" y="120" width="80" height="40" as="geometry" />
        </mxCell>
        <mxCell id="qIzmEXs6rjgO7k1j2Ef--93" value="" style="edgeStyle=orthogonalEdgeStyle;rounded=0;orthogonalLoop=1;jettySize=auto;html=1;" edge="1" parent="WIyWlLk6GJQsqaUBKTNV-1" source="qIzmEXs6rjgO7k1j2Ef--75" target="qIzmEXs6rjgO7k1j2Ef--90">
          <mxGeometry relative="1" as="geometry">
            <Array as="points">
              <mxPoint x="830.02" y="240" />
              <mxPoint x="830.02" y="240" />
            </Array>
          </mxGeometry>
        </mxCell>
        <mxCell id="qIzmEXs6rjgO7k1j2Ef--75" value="Trang chủ nhà tuyển dụng" style="rounded=0;whiteSpace=wrap;html=1;fillColor=#fff2cc;strokeColor=#d6b656;" vertex="1" parent="WIyWlLk6GJQsqaUBKTNV-1">
          <mxGeometry x="800.02" y="160" width="80" height="40" as="geometry" />
        </mxCell>
        <mxCell id="qIzmEXs6rjgO7k1j2Ef--76" value="Danh sách công việc đề xuất" style="rounded=0;whiteSpace=wrap;html=1;fillColor=#d5e8d4;strokeColor=#82b366;" vertex="1" parent="WIyWlLk6GJQsqaUBKTNV-1">
          <mxGeometry x="362.5" y="320" width="80" height="40" as="geometry" />
        </mxCell>
        <object label="" id="qIzmEXs6rjgO7k1j2Ef--77">
          <mxCell style="endArrow=classic;html=1;rounded=0;exitX=0;exitY=0;exitDx=0;exitDy=0;entryX=1;entryY=1;entryDx=0;entryDy=0;" edge="1" parent="WIyWlLk6GJQsqaUBKTNV-1" source="qIzmEXs6rjgO7k1j2Ef--76" target="qIzmEXs6rjgO7k1j2Ef--4">
            <mxGeometry width="50" height="50" relative="1" as="geometry">
              <mxPoint x="485" y="270" as="sourcePoint" />
              <mxPoint x="160" y="180" as="targetPoint" />
              <Array as="points" />
            </mxGeometry>
          </mxCell>
        </object>
        <mxCell id="qIzmEXs6rjgO7k1j2Ef--83" value="Chưa đăng nhập" style="text;html=1;align=center;verticalAlign=middle;whiteSpace=wrap;rounded=0;" vertex="1" parent="WIyWlLk6GJQsqaUBKTNV-1">
          <mxGeometry x="370" y="380" width="60" height="30" as="geometry" />
        </mxCell>
        <object label="" id="qIzmEXs6rjgO7k1j2Ef--84">
          <mxCell style="endArrow=classic;html=1;rounded=0;exitX=1;exitY=0;exitDx=0;exitDy=0;entryX=0.396;entryY=0.954;entryDx=0;entryDy=0;entryPerimeter=0;" edge="1" parent="WIyWlLk6GJQsqaUBKTNV-1" source="qIzmEXs6rjgO7k1j2Ef--9" target="qIzmEXs6rjgO7k1j2Ef--2">
            <mxGeometry width="50" height="50" relative="1" as="geometry">
              <mxPoint x="565" y="380" as="sourcePoint" />
              <mxPoint x="210" y="180" as="targetPoint" />
              <Array as="points">
                <mxPoint x="230" y="210" />
              </Array>
            </mxGeometry>
          </mxCell>
        </object>
        <mxCell id="qIzmEXs6rjgO7k1j2Ef--88" value="Thông tin công ty" style="rounded=0;whiteSpace=wrap;html=1;fillColor=#fff2cc;strokeColor=#d6b656;" vertex="1" parent="WIyWlLk6GJQsqaUBKTNV-1">
          <mxGeometry x="670.02" y="290" width="80" height="40" as="geometry" />
        </mxCell>
        <object label="" id="qIzmEXs6rjgO7k1j2Ef--89">
          <mxCell style="endArrow=classic;html=1;rounded=0;exitX=0;exitY=1;exitDx=0;exitDy=0;entryX=0.419;entryY=0.087;entryDx=0;entryDy=0;entryPerimeter=0;" edge="1" parent="WIyWlLk6GJQsqaUBKTNV-1" source="qIzmEXs6rjgO7k1j2Ef--75" target="qIzmEXs6rjgO7k1j2Ef--88">
            <mxGeometry width="50" height="50" relative="1" as="geometry">
              <mxPoint x="945.02" y="320" as="sourcePoint" />
              <mxPoint x="620.02" y="230" as="targetPoint" />
              <Array as="points" />
            </mxGeometry>
          </mxCell>
        </object>
        <mxCell id="qIzmEXs6rjgO7k1j2Ef--95" value="" style="edgeStyle=orthogonalEdgeStyle;rounded=0;orthogonalLoop=1;jettySize=auto;html=1;" edge="1" parent="WIyWlLk6GJQsqaUBKTNV-1" source="qIzmEXs6rjgO7k1j2Ef--90" target="qIzmEXs6rjgO7k1j2Ef--94">
          <mxGeometry relative="1" as="geometry" />
        </mxCell>
        <mxCell id="qIzmEXs6rjgO7k1j2Ef--90" value="Quản lý tin tuyển dụng" style="rounded=0;whiteSpace=wrap;html=1;fillColor=#fff2cc;strokeColor=#d6b656;" vertex="1" parent="WIyWlLk6GJQsqaUBKTNV-1">
          <mxGeometry x="790.02" y="290" width="80" height="40" as="geometry" />
        </mxCell>
        <mxCell id="qIzmEXs6rjgO7k1j2Ef--94" value="Đăng tin tuyển dụng mới" style="rounded=0;whiteSpace=wrap;html=1;fillColor=#fff2cc;strokeColor=#d6b656;" vertex="1" parent="WIyWlLk6GJQsqaUBKTNV-1">
          <mxGeometry x="790.02" y="370" width="80" height="40" as="geometry" />
        </mxCell>
        <mxCell id="qIzmEXs6rjgO7k1j2Ef--117" value="" style="edgeStyle=orthogonalEdgeStyle;rounded=0;orthogonalLoop=1;jettySize=auto;html=1;" edge="1" parent="WIyWlLk6GJQsqaUBKTNV-1" source="qIzmEXs6rjgO7k1j2Ef--96" target="qIzmEXs6rjgO7k1j2Ef--115">
          <mxGeometry relative="1" as="geometry" />
        </mxCell>
        <mxCell id="qIzmEXs6rjgO7k1j2Ef--96" value="Quản lý hồ sơ ứng tuyển" style="rounded=0;whiteSpace=wrap;html=1;fillColor=#fff2cc;strokeColor=#d6b656;" vertex="1" parent="WIyWlLk6GJQsqaUBKTNV-1">
          <mxGeometry x="910.02" y="290" width="80" height="40" as="geometry" />
        </mxCell>
        <object label="" id="qIzmEXs6rjgO7k1j2Ef--97">
          <mxCell style="endArrow=classic;html=1;rounded=0;entryX=0.5;entryY=0;entryDx=0;entryDy=0;" edge="1" parent="WIyWlLk6GJQsqaUBKTNV-1" source="qIzmEXs6rjgO7k1j2Ef--75">
            <mxGeometry width="50" height="50" relative="1" as="geometry">
              <mxPoint x="870.02" y="270" as="sourcePoint" />
              <mxPoint x="954.8199999999999" y="290" as="targetPoint" />
              <Array as="points" />
            </mxGeometry>
          </mxCell>
        </object>
        <mxCell id="qIzmEXs6rjgO7k1j2Ef--98" value="Tìm kiếm ứng viên tiềm năng" style="rounded=0;whiteSpace=wrap;html=1;fillColor=#fff2cc;strokeColor=#d6b656;" vertex="1" parent="WIyWlLk6GJQsqaUBKTNV-1">
          <mxGeometry x="1030.02" y="290" width="90" height="40" as="geometry" />
        </mxCell>
        <object label="" id="qIzmEXs6rjgO7k1j2Ef--103">
          <mxCell style="endArrow=classic;html=1;rounded=0;exitX=1;exitY=0.5;exitDx=0;exitDy=0;" edge="1" parent="WIyWlLk6GJQsqaUBKTNV-1" source="qIzmEXs6rjgO7k1j2Ef--75">
            <mxGeometry width="50" height="50" relative="1" as="geometry">
              <mxPoint x="1124.02" y="230" as="sourcePoint" />
              <mxPoint x="1045.02" y="290" as="targetPoint" />
              <Array as="points" />
            </mxGeometry>
          </mxCell>
        </object>
        <mxCell id="qIzmEXs6rjgO7k1j2Ef--104" value="Nâng cấp tài khoản" style="rounded=0;whiteSpace=wrap;html=1;fillColor=#fff2cc;strokeColor=#d6b656;" vertex="1" parent="WIyWlLk6GJQsqaUBKTNV-1">
          <mxGeometry x="1150.02" y="290" width="80" height="40" as="geometry" />
        </mxCell>
        <object label="" id="qIzmEXs6rjgO7k1j2Ef--110">
          <mxCell style="endArrow=classic;html=1;rounded=0;entryX=0.75;entryY=0;entryDx=0;entryDy=0;" edge="1" parent="WIyWlLk6GJQsqaUBKTNV-1" target="qIzmEXs6rjgO7k1j2Ef--104">
            <mxGeometry width="50" height="50" relative="1" as="geometry">
              <mxPoint x="880.02" y="180" as="sourcePoint" />
              <mxPoint x="1000.02" y="90" as="targetPoint" />
              <Array as="points">
                <mxPoint x="1020.02" y="230" />
              </Array>
            </mxGeometry>
          </mxCell>
        </object>
        <mxCell id="qIzmEXs6rjgO7k1j2Ef--121" value="" style="edgeStyle=orthogonalEdgeStyle;rounded=0;orthogonalLoop=1;jettySize=auto;html=1;" edge="1" parent="WIyWlLk6GJQsqaUBKTNV-1" source="qIzmEXs6rjgO7k1j2Ef--111" target="qIzmEXs6rjgO7k1j2Ef--118">
          <mxGeometry relative="1" as="geometry" />
        </mxCell>
        <mxCell id="qIzmEXs6rjgO7k1j2Ef--111" value="Tài khoản đã nâng cấp chưa?" style="rhombus;whiteSpace=wrap;html=1;" vertex="1" parent="WIyWlLk6GJQsqaUBKTNV-1">
          <mxGeometry x="1030.02" y="370" width="80" height="80" as="geometry" />
        </mxCell>
        <object label="" id="qIzmEXs6rjgO7k1j2Ef--113">
          <mxCell style="endArrow=classic;html=1;rounded=0;" edge="1" parent="WIyWlLk6GJQsqaUBKTNV-1" source="qIzmEXs6rjgO7k1j2Ef--98" target="qIzmEXs6rjgO7k1j2Ef--111">
            <mxGeometry width="50" height="50" relative="1" as="geometry">
              <mxPoint x="1065.02" y="400" as="sourcePoint" />
              <mxPoint x="740.02" y="310" as="targetPoint" />
              <Array as="points" />
            </mxGeometry>
          </mxCell>
        </object>
        <object label="" id="qIzmEXs6rjgO7k1j2Ef--114">
          <mxCell style="endArrow=classic;html=1;rounded=0;exitX=0.947;exitY=0.54;exitDx=0;exitDy=0;exitPerimeter=0;entryX=0.15;entryY=1.025;entryDx=0;entryDy=0;entryPerimeter=0;" edge="1" parent="WIyWlLk6GJQsqaUBKTNV-1" source="qIzmEXs6rjgO7k1j2Ef--111" target="qIzmEXs6rjgO7k1j2Ef--104">
            <mxGeometry width="50" height="50" relative="1" as="geometry">
              <mxPoint x="1215.02" y="480" as="sourcePoint" />
              <mxPoint x="890.02" y="390" as="targetPoint" />
              <Array as="points" />
            </mxGeometry>
          </mxCell>
        </object>
        <mxCell id="qIzmEXs6rjgO7k1j2Ef--115" value="Xuất báo cáo" style="rounded=0;whiteSpace=wrap;html=1;fillColor=#fff2cc;strokeColor=#d6b656;" vertex="1" parent="WIyWlLk6GJQsqaUBKTNV-1">
          <mxGeometry x="910.02" y="370" width="80" height="40" as="geometry" />
        </mxCell>
        <mxCell id="qIzmEXs6rjgO7k1j2Ef--118" value="Danh sách ứng viên tiềm năng" style="rounded=0;whiteSpace=wrap;html=1;fillColor=#fff2cc;strokeColor=#d6b656;" vertex="1" parent="WIyWlLk6GJQsqaUBKTNV-1">
          <mxGeometry x="1030.02" y="500" width="80" height="40" as="geometry" />
        </mxCell>
        <mxCell id="qIzmEXs6rjgO7k1j2Ef--122" value="Chưa nâng câp tài khoản" style="text;html=1;align=center;verticalAlign=middle;whiteSpace=wrap;rounded=0;" vertex="1" parent="WIyWlLk6GJQsqaUBKTNV-1">
          <mxGeometry x="1130.02" y="365" width="60" height="30" as="geometry" />
        </mxCell>
        <mxCell id="qIzmEXs6rjgO7k1j2Ef--123" value="Đã nâng cấp tài khoản" style="text;html=1;align=center;verticalAlign=middle;whiteSpace=wrap;rounded=0;" vertex="1" parent="WIyWlLk6GJQsqaUBKTNV-1">
          <mxGeometry x="1070.02" y="460" width="60" height="30" as="geometry" />
        </mxCell>
        <object label="" id="qIzmEXs6rjgO7k1j2Ef--124">
          <mxCell style="endArrow=classic;html=1;rounded=0;exitX=1;exitY=0;exitDx=0;exitDy=0;" edge="1" parent="WIyWlLk6GJQsqaUBKTNV-1" source="qIzmEXs6rjgO7k1j2Ef--42" target="qIzmEXs6rjgO7k1j2Ef--75">
            <mxGeometry width="50" height="50" relative="1" as="geometry">
              <mxPoint x="825" y="450" as="sourcePoint" />
              <mxPoint x="500" y="360" as="targetPoint" />
              <Array as="points">
                <mxPoint x="640" y="240" />
              </Array>
            </mxGeometry>
          </mxCell>
        </object>
        <mxCell id="qIzmEXs6rjgO7k1j2Ef--125" value="Tài khoản nhà tuyển dụng" style="edgeLabel;html=1;align=center;verticalAlign=middle;resizable=0;points=[];" vertex="1" connectable="0" parent="qIzmEXs6rjgO7k1j2Ef--124">
          <mxGeometry x="-0.3695" y="-3" relative="1" as="geometry">
            <mxPoint x="7" y="-32" as="offset" />
          </mxGeometry>
        </mxCell>
        <object label="" id="qIzmEXs6rjgO7k1j2Ef--126">
          <mxCell style="endArrow=classic;html=1;rounded=0;entryX=0.5;entryY=0;entryDx=0;entryDy=0;" edge="1" parent="WIyWlLk6GJQsqaUBKTNV-1" target="qIzmEXs6rjgO7k1j2Ef--128">
            <mxGeometry width="50" height="50" relative="1" as="geometry">
              <mxPoint x="600" y="390" as="sourcePoint" />
              <mxPoint x="824.8000000000002" y="550" as="targetPoint" />
              <Array as="points">
                <mxPoint x="830" y="510" />
              </Array>
            </mxGeometry>
          </mxCell>
        </object>
        <mxCell id="qIzmEXs6rjgO7k1j2Ef--130" value="Tài khoản admin" style="edgeLabel;html=1;align=center;verticalAlign=middle;resizable=0;points=[];" vertex="1" connectable="0" parent="qIzmEXs6rjgO7k1j2Ef--126">
          <mxGeometry x="0.3946" y="2" relative="1" as="geometry">
            <mxPoint x="29" y="22" as="offset" />
          </mxGeometry>
        </mxCell>
        <mxCell id="qIzmEXs6rjgO7k1j2Ef--148" value="" style="edgeStyle=orthogonalEdgeStyle;rounded=0;orthogonalLoop=1;jettySize=auto;html=1;" edge="1" parent="WIyWlLk6GJQsqaUBKTNV-1" source="qIzmEXs6rjgO7k1j2Ef--128" target="qIzmEXs6rjgO7k1j2Ef--131">
          <mxGeometry relative="1" as="geometry" />
        </mxCell>
        <mxCell id="qIzmEXs6rjgO7k1j2Ef--128" value="Trang chủ admin" style="rounded=0;whiteSpace=wrap;html=1;fillColor=#f8cecc;strokeColor=#b85450;" vertex="1" parent="WIyWlLk6GJQsqaUBKTNV-1">
          <mxGeometry x="790.02" y="590" width="80" height="40" as="geometry" />
        </mxCell>
        <mxCell id="qIzmEXs6rjgO7k1j2Ef--131" value="Bảo trì công việc" style="rounded=0;whiteSpace=wrap;html=1;fillColor=#f8cecc;strokeColor=#b85450;" vertex="1" parent="WIyWlLk6GJQsqaUBKTNV-1">
          <mxGeometry x="790.02" y="700" width="80" height="40" as="geometry" />
        </mxCell>
        <mxCell id="qIzmEXs6rjgO7k1j2Ef--133" value="Bảo trì đơn ứng tuyển" style="rounded=0;whiteSpace=wrap;html=1;fillColor=#f8cecc;strokeColor=#b85450;" vertex="1" parent="WIyWlLk6GJQsqaUBKTNV-1">
          <mxGeometry x="440" y="700" width="80" height="40" as="geometry" />
        </mxCell>
        <mxCell id="qIzmEXs6rjgO7k1j2Ef--134" value="Bảo trì người dùng" style="rounded=0;whiteSpace=wrap;html=1;fillColor=#f8cecc;strokeColor=#b85450;" vertex="1" parent="WIyWlLk6GJQsqaUBKTNV-1">
          <mxGeometry x="670.02" y="700" width="80" height="40" as="geometry" />
        </mxCell>
        <mxCell id="qIzmEXs6rjgO7k1j2Ef--135" value="Bảo trì kỹ năng" style="rounded=0;whiteSpace=wrap;html=1;fillColor=#f8cecc;strokeColor=#b85450;" vertex="1" parent="WIyWlLk6GJQsqaUBKTNV-1">
          <mxGeometry x="560" y="700" width="80" height="40" as="geometry" />
        </mxCell>
        <mxCell id="qIzmEXs6rjgO7k1j2Ef--136" value="Bảo trì quyền hạn" style="rounded=0;whiteSpace=wrap;html=1;fillColor=#f8cecc;strokeColor=#b85450;" vertex="1" parent="WIyWlLk6GJQsqaUBKTNV-1">
          <mxGeometry x="1160" y="700" width="80" height="40" as="geometry" />
        </mxCell>
        <mxCell id="qIzmEXs6rjgO7k1j2Ef--138" value="Bảo trì tin tức" style="rounded=0;whiteSpace=wrap;html=1;fillColor=#f8cecc;strokeColor=#b85450;" vertex="1" parent="WIyWlLk6GJQsqaUBKTNV-1">
          <mxGeometry x="1040.02" y="700" width="80" height="40" as="geometry" />
        </mxCell>
        <mxCell id="qIzmEXs6rjgO7k1j2Ef--139" value="Bảo trì công ty" style="rounded=0;whiteSpace=wrap;html=1;fillColor=#f8cecc;strokeColor=#b85450;" vertex="1" parent="WIyWlLk6GJQsqaUBKTNV-1">
          <mxGeometry x="920" y="700" width="80" height="40" as="geometry" />
        </mxCell>
        <mxCell id="qIzmEXs6rjgO7k1j2Ef--141" style="edgeStyle=orthogonalEdgeStyle;rounded=0;orthogonalLoop=1;jettySize=auto;html=1;exitX=0.5;exitY=1;exitDx=0;exitDy=0;" edge="1" parent="WIyWlLk6GJQsqaUBKTNV-1" source="qIzmEXs6rjgO7k1j2Ef--83" target="qIzmEXs6rjgO7k1j2Ef--83">
          <mxGeometry relative="1" as="geometry" />
        </mxCell>
        <object label="" id="qIzmEXs6rjgO7k1j2Ef--143">
          <mxCell style="endArrow=classic;html=1;rounded=0;entryX=0.5;entryY=0;entryDx=0;entryDy=0;" edge="1" parent="WIyWlLk6GJQsqaUBKTNV-1" source="qIzmEXs6rjgO7k1j2Ef--128" target="qIzmEXs6rjgO7k1j2Ef--144">
            <mxGeometry width="50" height="50" relative="1" as="geometry">
              <mxPoint x="800" y="610" as="sourcePoint" />
              <mxPoint x="250" y="620" as="targetPoint" />
              <Array as="points" />
            </mxGeometry>
          </mxCell>
        </object>
        <mxCell id="qIzmEXs6rjgO7k1j2Ef--144" value="Báo cáo thông kê" style="rounded=0;whiteSpace=wrap;html=1;fillColor=#f8cecc;strokeColor=#b85450;" vertex="1" parent="WIyWlLk6GJQsqaUBKTNV-1">
          <mxGeometry x="317" y="700" width="83" height="40" as="geometry" />
        </mxCell>
        <object label="" id="qIzmEXs6rjgO7k1j2Ef--145">
          <mxCell style="endArrow=classic;html=1;rounded=0;entryX=0.75;entryY=0;entryDx=0;entryDy=0;" edge="1" parent="WIyWlLk6GJQsqaUBKTNV-1" source="qIzmEXs6rjgO7k1j2Ef--128" target="qIzmEXs6rjgO7k1j2Ef--133">
            <mxGeometry width="50" height="50" relative="1" as="geometry">
              <mxPoint x="335" y="650" as="sourcePoint" />
              <mxPoint x="10" y="560" as="targetPoint" />
              <Array as="points" />
            </mxGeometry>
          </mxCell>
        </object>
        <object label="" id="qIzmEXs6rjgO7k1j2Ef--146">
          <mxCell style="endArrow=classic;html=1;rounded=0;exitX=0.5;exitY=1;exitDx=0;exitDy=0;entryX=0.75;entryY=0;entryDx=0;entryDy=0;" edge="1" parent="WIyWlLk6GJQsqaUBKTNV-1" source="qIzmEXs6rjgO7k1j2Ef--128">
            <mxGeometry width="50" height="50" relative="1" as="geometry">
              <mxPoint x="1023" y="629" as="sourcePoint" />
              <mxPoint x="700" y="700" as="targetPoint" />
              <Array as="points" />
            </mxGeometry>
          </mxCell>
        </object>
        <object label="" id="qIzmEXs6rjgO7k1j2Ef--147">
          <mxCell style="endArrow=classic;html=1;rounded=0;entryX=0.5;entryY=0;entryDx=0;entryDy=0;" edge="1" parent="WIyWlLk6GJQsqaUBKTNV-1" target="qIzmEXs6rjgO7k1j2Ef--131">
            <mxGeometry width="50" height="50" relative="1" as="geometry">
              <mxPoint x="830" y="640" as="sourcePoint" />
              <mxPoint x="650" y="540" as="targetPoint" />
              <Array as="points" />
            </mxGeometry>
          </mxCell>
        </object>
        <object label="" id="qIzmEXs6rjgO7k1j2Ef--149">
          <mxCell style="endArrow=classic;html=1;rounded=0;entryX=0.404;entryY=-0.063;entryDx=0;entryDy=0;entryPerimeter=0;exitX=0.5;exitY=1;exitDx=0;exitDy=0;" edge="1" parent="WIyWlLk6GJQsqaUBKTNV-1" source="qIzmEXs6rjgO7k1j2Ef--128" target="qIzmEXs6rjgO7k1j2Ef--139">
            <mxGeometry width="50" height="50" relative="1" as="geometry">
              <mxPoint x="875" y="660" as="sourcePoint" />
              <mxPoint x="550" y="570" as="targetPoint" />
              <Array as="points" />
            </mxGeometry>
          </mxCell>
        </object>
        <object label="" id="qIzmEXs6rjgO7k1j2Ef--150">
          <mxCell style="endArrow=classic;html=1;rounded=0;exitX=0.75;exitY=1;exitDx=0;exitDy=0;entryX=0.5;entryY=0;entryDx=0;entryDy=0;" edge="1" parent="WIyWlLk6GJQsqaUBKTNV-1" source="qIzmEXs6rjgO7k1j2Ef--128" target="qIzmEXs6rjgO7k1j2Ef--138">
            <mxGeometry width="50" height="50" relative="1" as="geometry">
              <mxPoint x="1215" y="650" as="sourcePoint" />
              <mxPoint x="890" y="560" as="targetPoint" />
              <Array as="points" />
            </mxGeometry>
          </mxCell>
        </object>
        <object label="" id="qIzmEXs6rjgO7k1j2Ef--151">
          <mxCell style="endArrow=classic;html=1;rounded=0;" edge="1" parent="WIyWlLk6GJQsqaUBKTNV-1" source="qIzmEXs6rjgO7k1j2Ef--128" target="qIzmEXs6rjgO7k1j2Ef--135">
            <mxGeometry width="50" height="50" relative="1" as="geometry">
              <mxPoint x="963" y="549" as="sourcePoint" />
              <mxPoint x="640" y="620" as="targetPoint" />
              <Array as="points" />
            </mxGeometry>
          </mxCell>
        </object>
        <object label="" id="qIzmEXs6rjgO7k1j2Ef--152">
          <mxCell style="endArrow=classic;html=1;rounded=0;entryX=0.625;entryY=0;entryDx=0;entryDy=0;entryPerimeter=0;" edge="1" parent="WIyWlLk6GJQsqaUBKTNV-1" source="qIzmEXs6rjgO7k1j2Ef--128" target="qIzmEXs6rjgO7k1j2Ef--136">
            <mxGeometry width="50" height="50" relative="1" as="geometry">
              <mxPoint x="1235" y="650" as="sourcePoint" />
              <mxPoint x="910" y="560" as="targetPoint" />
              <Array as="points" />
            </mxGeometry>
          </mxCell>
        </object>
        <object label="" id="qIzmEXs6rjgO7k1j2Ef--153">
          <mxCell style="endArrow=classic;html=1;rounded=0;exitX=0.625;exitY=0;exitDx=0;exitDy=0;exitPerimeter=0;entryX=1;entryY=0.5;entryDx=0;entryDy=0;" edge="1" parent="WIyWlLk6GJQsqaUBKTNV-1" source="qIzmEXs6rjgO7k1j2Ef--42" target="qIzmEXs6rjgO7k1j2Ef--0">
            <mxGeometry width="50" height="50" relative="1" as="geometry">
              <mxPoint x="955" y="110" as="sourcePoint" />
              <mxPoint x="380" y="60" as="targetPoint" />
              <Array as="points">
                <mxPoint x="570" y="150" />
              </Array>
            </mxGeometry>
          </mxCell>
        </object>
        <mxCell id="qIzmEXs6rjgO7k1j2Ef--159" value="Tài khoản ứng viên" style="edgeLabel;html=1;align=center;verticalAlign=middle;resizable=0;points=[];" vertex="1" connectable="0" parent="qIzmEXs6rjgO7k1j2Ef--153">
          <mxGeometry x="0.0074" y="-4" relative="1" as="geometry">
            <mxPoint y="4" as="offset" />
          </mxGeometry>
        </mxCell>
      </root>
    </mxGraphModel>
  </diagram>
</mxfile>
